<?xml version="1.0" encoding="UTF-8" standalone="no"?>
<!DOCTYPE svg PUBLIC "-//W3C//DTD SVG 1.1//EN"
 "http://www.w3.org/Graphics/SVG/1.1/DTD/svg11.dtd">
<!-- Generated by graphviz version 2.47.3 (20210619.1520)
 -->
<!-- Title: dependencies Pages: 1 -->
<svg width="316pt" height="174pt"
 viewBox="0.00 0.00 316.00 173.80" xmlns="http://www.w3.org/2000/svg" xmlns:xlink="http://www.w3.org/1999/xlink">
<g id="graph0" class="graph" transform="scale(1 1) rotate(0) translate(4 169.8)">
<title>dependencies</title>
<polygon fill="white" stroke="transparent" points="-4,4 -4,-169.8 312,-169.8 312,4 -4,4"/>
<text text-anchor="middle" x="154" y="-8.2" font-family="sans-serif" font-size="14.00">dependencies</text>
<g id="clust1" class="cluster">
<title>cluster_LessonModule</title>
<polygon fill="none" stroke="black" stroke-dasharray="1,5" points="8,-32.8 8,-157.8 300,-157.8 300,-32.8 8,-32.8"/>
</g>
<g id="clust6" class="cluster">
<title>cluster_LessonModule_providers</title>
<polygon fill="none" stroke="black" points="142,-40.8 142,-92.8 292,-92.8 292,-40.8 142,-40.8"/>
</g>
<g id="clust3" class="cluster">
<title>cluster_LessonModule_imports</title>
<polygon fill="none" stroke="black" points="16,-40.8 16,-92.8 134,-92.8 134,-40.8 16,-40.8"/>
</g>
<!-- StudentModule -->
<g id="node1" class="node">
<title>StudentModule</title>
<polygon fill="#8dd3c7" stroke="black" points="126.33,-84.8 123.33,-88.8 102.33,-88.8 99.33,-84.8 23.67,-84.8 23.67,-48.8 126.33,-48.8 126.33,-84.8"/>
<text text-anchor="middle" x="75" y="-62.6" font-family="Times,serif" font-size="14.00">StudentModule</text>
</g>
<!-- LessonModule -->
<g id="node2" class="node">
<title>LessonModule</title>
<polygon fill="#8dd3c7" stroke="black" points="195.71,-149.8 192.71,-153.8 171.71,-153.8 168.71,-149.8 96.29,-149.8 96.29,-113.8 195.71,-113.8 195.71,-149.8"/>
<text text-anchor="middle" x="146" y="-127.6" font-family="Times,serif" font-size="14.00">LessonModule</text>
</g>
<!-- StudentModule&#45;&gt;LessonModule -->
<g id="edge1" class="edge">
<title>StudentModule&#45;&gt;LessonModule</title>
<path fill="none" stroke="black" d="M111.28,-84.91C111.28,-84.91 111.28,-103.79 111.28,-103.79"/>
<polygon fill="black" stroke="black" points="107.78,-103.79 111.28,-113.79 114.78,-103.79 107.78,-103.79"/>
</g>
<!-- LessonService -->
<g id="node3" class="node">
<title>LessonService</title>
<ellipse fill="#fdb462" stroke="black" cx="217" cy="-66.8" rx="67.19" ry="18"/>
<text text-anchor="middle" x="217" y="-62.6" font-family="Times,serif" font-size="14.00">LessonService</text>
</g>
<!-- LessonService&#45;&gt;LessonModule -->
<g id="edge2" class="edge">
<title>LessonService&#45;&gt;LessonModule</title>
<path fill="none" stroke="black" d="M172.63,-80.58C172.63,-80.58 172.63,-103.35 172.63,-103.35"/>
<polygon fill="black" stroke="black" points="169.13,-103.35 172.63,-113.35 176.13,-103.35 169.13,-103.35"/>
</g>
</g>
</svg>
