<?xml version="1.0" encoding="UTF-8" standalone="no"?>
<!DOCTYPE svg PUBLIC "-//W3C//DTD SVG 1.1//EN"
 "http://www.w3.org/Graphics/SVG/1.1/DTD/svg11.dtd">
<!-- Generated by graphviz version 2.47.3 (20210619.1520)
 -->
<!-- Title: dependencies Pages: 1 -->
<svg width="276pt" height="174pt"
 viewBox="0.00 0.00 276.00 173.80" xmlns="http://www.w3.org/2000/svg" xmlns:xlink="http://www.w3.org/1999/xlink">
<g id="graph0" class="graph" transform="scale(1 1) rotate(0) translate(4 169.8)">
<title>dependencies</title>
<polygon fill="white" stroke="transparent" points="-4,4 -4,-169.8 272,-169.8 272,4 -4,4"/>
<text text-anchor="middle" x="134" y="-8.2" font-family="sans-serif" font-size="14.00">dependencies</text>
<g id="clust1" class="cluster">
<title>cluster_AppModule</title>
<polygon fill="none" stroke="black" stroke-dasharray="1,5" points="8,-32.8 8,-157.8 260,-157.8 260,-32.8 8,-32.8"/>
</g>
<g id="clust3" class="cluster">
<title>cluster_AppModule_imports</title>
<polygon fill="none" stroke="black" points="16,-40.8 16,-92.8 252,-92.8 252,-40.8 16,-40.8"/>
</g>
<!-- LessonModule -->
<g id="node1" class="node">
<title>LessonModule</title>
<polygon fill="#8dd3c7" stroke="black" points="243.71,-84.8 240.71,-88.8 219.71,-88.8 216.71,-84.8 144.29,-84.8 144.29,-48.8 243.71,-48.8 243.71,-84.8"/>
<text text-anchor="middle" x="194" y="-62.6" font-family="Times,serif" font-size="14.00">LessonModule</text>
</g>
<!-- AppModule -->
<g id="node3" class="node">
<title>AppModule</title>
<polygon fill="#8dd3c7" stroke="black" points="175.66,-149.8 172.66,-153.8 151.66,-153.8 148.66,-149.8 92.34,-149.8 92.34,-113.8 175.66,-113.8 175.66,-149.8"/>
<text text-anchor="middle" x="134" y="-127.6" font-family="Times,serif" font-size="14.00">AppModule</text>
</g>
<!-- LessonModule&#45;&gt;AppModule -->
<g id="edge1" class="edge">
<title>LessonModule&#45;&gt;AppModule</title>
<path fill="none" stroke="black" d="M160.11,-84.91C160.11,-84.91 160.11,-103.79 160.11,-103.79"/>
<polygon fill="black" stroke="black" points="156.61,-103.79 160.11,-113.79 163.61,-103.79 156.61,-103.79"/>
</g>
<!-- StudentModule -->
<g id="node2" class="node">
<title>StudentModule</title>
<polygon fill="#8dd3c7" stroke="black" points="126.33,-84.8 123.33,-88.8 102.33,-88.8 99.33,-84.8 23.67,-84.8 23.67,-48.8 126.33,-48.8 126.33,-84.8"/>
<text text-anchor="middle" x="75" y="-62.6" font-family="Times,serif" font-size="14.00">StudentModule</text>
</g>
<!-- StudentModule&#45;&gt;AppModule -->
<g id="edge2" class="edge">
<title>StudentModule&#45;&gt;AppModule</title>
<path fill="none" stroke="black" d="M109.17,-84.91C109.17,-84.91 109.17,-103.79 109.17,-103.79"/>
<polygon fill="black" stroke="black" points="105.67,-103.79 109.17,-113.79 112.67,-103.79 105.67,-103.79"/>
</g>
</g>
</svg>
