<?xml version="1.0" encoding="UTF-8" standalone="no"?>
<!DOCTYPE svg PUBLIC "-//W3C//DTD SVG 1.1//EN"
 "http://www.w3.org/Graphics/SVG/1.1/DTD/svg11.dtd">
<!-- Generated by graphviz version 2.47.3 (20210619.1520)
 -->
<!-- Title: dependencies Pages: 1 -->
<svg width="648pt" height="250pt"
 viewBox="0.00 0.00 648.00 249.80" xmlns="http://www.w3.org/2000/svg" xmlns:xlink="http://www.w3.org/1999/xlink">
<g id="graph0" class="graph" transform="scale(1 1) rotate(0) translate(4 245.8)">
<title>dependencies</title>
<polygon fill="white" stroke="transparent" points="-4,4 -4,-245.8 644,-245.8 644,4 -4,4"/>
<text text-anchor="middle" x="320" y="-8.2" font-family="sans-serif" font-size="14.00">dependencies</text>
<g id="clust1" class="cluster">
<title>cluster_AppModule</title>
<polygon fill="none" stroke="black" stroke-dasharray="1,5" points="182,-32.8 182,-233.8 326,-233.8 326,-32.8 182,-32.8"/>
</g>
<g id="clust3" class="cluster">
<title>cluster_AppModule_imports</title>
<polygon fill="none" stroke="black" points="190,-40.8 190,-168.8 308,-168.8 308,-40.8 190,-40.8"/>
</g>
<g id="clust7" class="cluster">
<title>cluster_LessonModule</title>
<polygon fill="none" stroke="black" stroke-dasharray="1,5" points="8,-32.8 8,-100.8 174,-100.8 174,-32.8 8,-32.8"/>
</g>
<g id="clust12" class="cluster">
<title>cluster_LessonModule_providers</title>
<polygon fill="none" stroke="black" points="16,-40.8 16,-92.8 166,-92.8 166,-40.8 16,-40.8"/>
</g>
<g id="clust13" class="cluster">
<title>cluster_StudentModule</title>
<polygon fill="none" stroke="black" stroke-dasharray="1,5" points="334,-108.8 334,-176.8 632,-176.8 632,-108.8 334,-108.8"/>
</g>
<g id="clust16" class="cluster">
<title>cluster_StudentModule_exports</title>
<polygon fill="none" stroke="black" points="504,-116.8 504,-168.8 624,-168.8 624,-116.8 504,-116.8"/>
</g>
<g id="clust18" class="cluster">
<title>cluster_StudentModule_providers</title>
<polygon fill="none" stroke="black" points="342,-116.8 342,-168.8 496,-168.8 496,-116.8 342,-116.8"/>
</g>
<!-- LessonModule -->
<g id="node1" class="node">
<title>LessonModule</title>
<polygon fill="#8dd3c7" stroke="black" points="297.71,-160.8 294.71,-164.8 273.71,-164.8 270.71,-160.8 198.29,-160.8 198.29,-124.8 297.71,-124.8 297.71,-160.8"/>
<text text-anchor="middle" x="248" y="-138.6" font-family="Times,serif" font-size="14.00">LessonModule</text>
</g>
<!-- AppModule -->
<g id="node3" class="node">
<title>AppModule</title>
<polygon fill="#8dd3c7" stroke="black" points="303.66,-225.8 300.66,-229.8 279.66,-229.8 276.66,-225.8 220.34,-225.8 220.34,-189.8 303.66,-189.8 303.66,-225.8"/>
<text text-anchor="middle" x="262" y="-203.6" font-family="Times,serif" font-size="14.00">AppModule</text>
</g>
<!-- LessonModule&#45;&gt;AppModule -->
<g id="edge1" class="edge">
<title>LessonModule&#45;&gt;AppModule</title>
<path fill="none" stroke="black" d="M258.89,-160.91C258.89,-160.91 258.89,-179.79 258.89,-179.79"/>
<polygon fill="black" stroke="black" points="255.39,-179.79 258.89,-189.79 262.39,-179.79 255.39,-179.79"/>
</g>
<!-- StudentModule -->
<g id="node2" class="node">
<title>StudentModule</title>
<polygon fill="#8dd3c7" stroke="black" points="300.33,-84.8 297.33,-88.8 276.33,-88.8 273.33,-84.8 197.67,-84.8 197.67,-48.8 300.33,-48.8 300.33,-84.8"/>
<text text-anchor="middle" x="249" y="-62.6" font-family="Times,serif" font-size="14.00">StudentModule</text>
</g>
<!-- StudentModule&#45;&gt;LessonModule -->
<g id="edge3" class="edge">
<title>StudentModule&#45;&gt;LessonModule</title>
<path fill="none" stroke="black" d="M248,-84.81C248,-84.81 248,-114.65 248,-114.65"/>
<polygon fill="black" stroke="black" points="244.5,-114.65 248,-124.65 251.5,-114.65 244.5,-114.65"/>
</g>
<!-- StudentModule&#45;&gt;AppModule -->
<g id="edge2" class="edge">
<title>StudentModule&#45;&gt;AppModule</title>
<path fill="none" stroke="black" d="M300.37,-75.8C314.81,-75.8 326.66,-75.8 326.66,-75.8 326.66,-75.8 326.66,-207.8 326.66,-207.8 326.66,-207.8 313.68,-207.8 313.68,-207.8"/>
<polygon fill="black" stroke="black" points="313.68,-204.3 303.68,-207.8 313.68,-211.3 313.68,-204.3"/>
</g>
<!-- StudentService  -->
<g id="node5" class="node">
<title>StudentService </title>
<polygon fill="#fb8072" stroke="black" points="616.26,-160.8 511.74,-160.8 511.74,-124.8 616.26,-124.8 616.26,-160.8"/>
<text text-anchor="middle" x="564" y="-138.6" font-family="Times,serif" font-size="14.00">StudentService </text>
</g>
<!-- StudentModule&#45;&gt;StudentService  -->
<g id="edge5" class="edge">
<title>StudentModule&#45;&gt;StudentService </title>
<path fill="none" stroke="black" stroke-dasharray="5,2" d="M300.31,-57.8C389.57,-57.8 564,-57.8 564,-57.8 564,-57.8 564,-114.77 564,-114.77"/>
<polygon fill="black" stroke="black" points="560.5,-114.77 564,-124.77 567.5,-114.77 560.5,-114.77"/>
</g>
<!-- LessonService -->
<g id="node4" class="node">
<title>LessonService</title>
<ellipse fill="#fdb462" stroke="black" cx="91" cy="-66.8" rx="67.19" ry="18"/>
<text text-anchor="middle" x="91" y="-62.6" font-family="Times,serif" font-size="14.00">LessonService</text>
</g>
<!-- LessonService&#45;&gt;LessonModule -->
<g id="edge4" class="edge">
<title>LessonService&#45;&gt;LessonModule</title>
<path fill="none" stroke="black" d="M91,-84.81C91,-107.29 91,-142.8 91,-142.8 91,-142.8 188.32,-142.8 188.32,-142.8"/>
<polygon fill="black" stroke="black" points="188.32,-146.3 198.32,-142.8 188.32,-139.3 188.32,-146.3"/>
</g>
<!-- StudentService -->
<g id="node6" class="node">
<title>StudentService</title>
<ellipse fill="#fdb462" stroke="black" cx="419" cy="-142.8" rx="69.5" ry="18"/>
<text text-anchor="middle" x="419" y="-138.6" font-family="Times,serif" font-size="14.00">StudentService</text>
</g>
<!-- StudentService&#45;&gt;StudentModule -->
<g id="edge6" class="edge">
<title>StudentService&#45;&gt;StudentModule</title>
<path fill="none" stroke="black" d="M419,-124.79C419,-102.31 419,-66.8 419,-66.8 419,-66.8 310.47,-66.8 310.47,-66.8"/>
<polygon fill="black" stroke="black" points="310.47,-63.3 300.47,-66.8 310.47,-70.3 310.47,-63.3"/>
</g>
</g>
</svg>
